<svg width="415" height="201" viewBox="0 0 415 201" fill="none" xmlns="http://www.w3.org/2000/svg">
<g clip-path="url(#clip0_4703_6144)">
<path d="M48.6247 17.9124C48.6247 17.9124 27.1625 15.9878 19.4679 32.7124C15.8659 40.5834 17.3376 51.8984 22.2523 58.9504C18.3232 61.4118 -4.59707 83.0546 22.2523 103.228C22.0888 105.689 17.1786 134.22 11.9368 142.587C1.6213 160.954 -7.55409 175.222 9.39767 191.783C23.8921 203.589 40.5894 191.291 43.0468 187.847C46.1583 183.912 47.4664 178.498 54.9975 182.601C61.384 185.882 88.3787 194.435 107.088 194.007C124.076 194.221 209.476 194.399 209.476 194.399L234.213 194.062C234.213 194.062 255.425 193.252 270.801 178.579C273.876 176.951 287.262 169.157 299.926 179.485C304.45 184.016 318.286 197.383 330.613 199.763C337.054 201.005 352.444 200.923 360.951 201C367.81 201.064 379.747 200.659 385.498 196.819C391.371 193.411 416.431 180.427 414.773 145.376C414.982 109.702 414.85 57.6856 414.85 57.6856C414.85 57.6856 417.307 42.5761 402.295 24.7596C397.744 19.3546 393.574 15.6648 386.997 13.0851C379.452 10.1233 375.173 9.72749 360.602 9.72749C353.779 9.72749 346.857 9.6092 340.02 9.68199C325.594 9.84123 320.766 13.9086 305.935 26.3884C301.584 29.4776 299.435 33.4449 291.927 32.676C290.968 32.6123 289.233 31.7707 288.443 29.5641C288.198 28.8771 288.102 28.1446 288.102 27.4166C288.111 23.0444 287.416 15.3327 282.547 8.55822C277.85 2.99852 262.225 -6.68773 246.182 6.97039C240.567 12.1934 238.76 21.0334 238.959 25.251C238.959 29.6687 240.254 36.0928 236.62 36.9118C233.077 37.7307 229.257 38.4587 229.257 38.4587C229.257 38.4587 225.896 39.5506 224.892 36.1838C223.62 32.6351 216.78 16.1653 195.717 18.1125C194.695 15.8604 188.595 0.264171 172.983 0.00484016C157.371 -0.254491 150.849 9.95952 147.637 18.0534C145.707 18.0534 132.938 15.3236 121.346 25.806C119.997 24.341 112.571 16.7886 97.5995 17.9169C96.7001 15.8877 92.6938 0.373364 74.1023 0.000290489C64.8043 0.250522 55.6925 1.32879 48.6293 17.9124H48.6247Z" fill="#FDFCFF"/>
<path d="M369.655 179.885H345.953C329.269 179.885 315.697 166.291 315.697 149.58V56.3796C315.697 39.6686 329.269 26.0742 345.953 26.0742H369.655C386.338 26.0742 399.911 39.6686 399.911 56.3796V149.58C399.911 166.291 386.338 179.885 369.655 179.885ZM345.953 39.1272C336.455 39.1272 328.729 46.8662 328.729 56.3796V149.58C328.729 159.093 336.455 166.832 345.953 166.832H369.655C379.153 166.832 386.879 159.093 386.879 149.58V56.3796C386.879 46.8662 379.153 39.1272 369.655 39.1272H345.953Z" fill="#A9886C"/>
<path d="M67.7345 171.527C62.0067 169.525 56.5196 167.182 51.2369 164.316C47.7303 162.414 44.7324 159.725 41.7481 157.077C40.9714 156.386 40.2537 155.626 38.9001 155.285C36.7335 161.372 33.6265 167.036 30.4878 172.678C29.266 174.875 28.0123 177.068 26.5769 179.134C24.6147 181.959 19.7136 182.892 16.9791 181.122C13.6178 178.952 12.6594 175.062 14.817 171.559C21.4941 160.712 26.4679 149.133 30.3379 137.004C32.8498 129.142 34.5441 121.144 35.9431 113.032C36.5154 109.701 36.7925 106.066 40.5853 104.278C45.0958 102.149 50.3012 105.288 50.4284 110.375C50.0787 114.174 49.6153 117.964 48.7387 121.685C47.6894 126.126 46.5856 130.548 45.7226 135.016C44.905 139.315 45.709 141.162 48.0937 143.642C53.3445 149.097 59.6901 152.791 66.5762 155.785C70.2055 157.364 74.0391 158.242 77.7411 159.548C78.7222 159.893 79.7261 160.157 80.7481 160.339C90.6275 162.091 100.607 163.233 110.636 163.733C132.616 163.806 153.27 163.806 176.572 163.806C193.51 163.806 210.444 164.179 227.382 164.116C233.868 164.093 239.827 162.523 245.319 158.952C251.574 154.88 254.826 148.924 256.802 141.977C258.183 137.118 258.037 132.19 257.956 127.245C257.683 119.247 257.806 111.235 257.738 103.232C257.629 91.2434 257.133 79.2414 257.474 67.2666C257.838 54.3865 257.624 41.5155 257.783 28.6445C257.806 26.7518 257.333 24.8864 257.937 22.9528C259.009 19.5451 261.344 17.7707 265.105 17.8617C268.294 17.9391 270.892 20.0137 271.537 23.1985C272.491 27.9393 271.914 32.7437 271.805 37.5072C271.578 47.3391 271.632 57.1573 271.805 66.9891C271.991 77.7718 271.655 88.5636 271.596 99.3509C271.528 111.894 271.596 124.442 271.46 136.986C271.333 148.669 266.413 159.866 257.629 167.555C251.715 172.733 244.851 175.936 236.807 177.246C230.629 178.251 224.552 178.292 218.415 178.306C184.88 178.379 151.344 178.279 117.804 178.42C116.941 178.42 116.078 178.401 115.215 178.351C107.289 177.892 99.3805 177.278 91.4633 176.559C83.378 175.194 75.4291 174.225 67.7345 171.531V171.527Z" fill="#A9886C"/>
<path d="M245.81 67.9579C244.565 79.1046 240.064 120.261 230.838 125.275C224.565 128 218.624 121.703 221.272 116.007C223.262 111.53 224.465 106.826 225.442 102.03C228.549 89.5324 230.879 76.8843 231.22 63.9451C231.842 52.6528 248.272 54.1269 245.81 67.9579Z" fill="#A9886C"/>
<path d="M294.049 117.699C291.033 106.753 279.8 66.3608 286.586 58.176C291.46 53.2487 299.409 56.9248 299.063 63.2807C298.877 68.2398 299.508 73.1171 300.394 77.9898C302.17 90.9108 304.732 103.682 309.274 115.975C312.935 126.826 296.938 131.635 294.049 117.704V117.699Z" fill="#A9886C"/>
<path d="M129.459 131.262C131.344 127.195 135.133 117.722 135.95 110.406C136.15 108.6 136.845 106.817 138.19 105.516C140.143 103.632 142.523 102.313 145.239 103.332C148.028 104.378 150.04 106.503 150.431 109.61C150.676 111.567 150.049 113.432 149.768 115.484C149.205 119.556 148.242 123.214 146.933 126.945C144.308 134.447 141.401 141.827 136.591 148.26C134.728 150.753 132.117 151.877 129.05 151.226C125.989 150.58 124.027 148.455 123.4 145.457C122.9 143.055 124.136 141.249 125.494 139.001C126.984 136.544 128.178 134.024 129.459 131.262Z" fill="#A9886C"/>
<path d="M101.634 37.4893H40.0676C36.7562 37.4893 34.0718 40.178 34.0718 43.4948V44.2956C34.0718 47.6124 36.7562 50.3011 40.0676 50.3011H101.634C104.945 50.3011 107.629 47.6124 107.629 44.2956V43.4948C107.629 40.178 104.945 37.4893 101.634 37.4893Z" fill="#A9886C"/>
<path d="M111.763 73.5273H33.1406C29.8292 73.5273 27.1448 76.2161 27.1448 79.5329V80.3337C27.1448 83.6504 29.8292 86.3392 33.1406 86.3392H111.763C115.074 86.3392 117.759 83.6504 117.759 80.3337V79.5329C117.759 76.2161 115.074 73.5273 111.763 73.5273Z" fill="#A9886C"/>
<path d="M110.164 113.837H70.4506C67.1392 113.837 64.4548 116.526 64.4548 119.842V120.111C64.4548 123.428 67.1392 126.116 70.4506 126.116H110.164C113.475 126.116 116.16 123.428 116.16 120.111V119.842C116.16 116.526 113.475 113.837 110.164 113.837Z" fill="#A9886C"/>
<path d="M64.4548 24.545L64.4548 140.666C64.4548 143.983 67.1392 146.672 70.4506 146.672H71.2501C74.5615 146.672 77.2459 143.983 77.2459 140.666V24.545C77.2459 21.2282 74.5615 18.5394 71.2501 18.5394H70.4506C67.1392 18.5394 64.4548 21.2282 64.4548 24.545Z" fill="#A9886C"/>
<path d="M199.179 37.4893H137.613C134.301 37.4893 131.617 40.178 131.617 43.4948V44.2956C131.617 47.6124 134.301 50.3011 137.613 50.3011H199.179C202.49 50.3011 205.174 47.6124 205.174 44.2956V43.4948C205.174 40.178 202.49 37.4893 199.179 37.4893Z" fill="#A9886C"/>
<path d="M207.705 74.5957H129.082C125.771 74.5957 123.087 77.2845 123.087 80.6013V81.402C123.087 84.7188 125.771 87.4076 129.082 87.4076H207.705C211.016 87.4076 213.7 84.7188 213.7 81.402V80.6013C213.7 77.2845 211.016 74.5957 207.705 74.5957Z" fill="#A9886C"/>
<path d="M207.709 113.837H167.996C164.685 113.837 162 116.526 162 119.842V120.111C162 123.428 164.685 126.116 167.996 126.116H207.709C211.021 126.116 213.705 123.428 213.705 120.111V119.842C213.705 116.526 211.021 113.837 207.709 113.837Z" fill="#A9886C"/>
<path d="M162 24.545V140.666C162 143.983 164.685 146.672 167.996 146.672H168.795C172.107 146.672 174.791 143.983 174.791 140.666V24.545C174.791 21.2282 172.107 18.5394 168.795 18.5394H167.996C164.685 18.5394 162 21.2282 162 24.545Z" fill="#A9886C"/>
<path d="M371.403 96.5713H322.27C319.279 96.5713 316.855 98.9993 316.855 101.994V103.96C316.855 106.955 319.279 109.383 322.27 109.383H371.403C374.394 109.383 376.818 106.955 376.818 103.96V101.994C376.818 98.9993 374.394 96.5713 371.403 96.5713Z" fill="#A9886C"/>
</g>
<defs>
<clipPath id="clip0_4703_6144">
<rect width="415" height="201" fill="white"/>
</clipPath>
</defs>
</svg>
