<svg width="238" height="115" viewBox="0 0 238 115" fill="none" xmlns="http://www.w3.org/2000/svg">
<g clip-path="url(#clip0_5049_8193)">
<path d="M27.8856 10.2481C27.8856 10.2481 15.5771 9.14703 11.1643 18.7158C9.09856 23.2191 9.94257 29.6929 12.7611 33.7276C10.5079 35.1358 -2.6368 47.5185 12.7611 59.0604C12.6674 60.4687 9.8514 76.7924 6.84527 81.5794C0.929394 92.0879 -4.33264 100.251 5.38909 109.726C13.7015 116.481 23.2774 109.445 24.6867 107.475C26.4711 105.223 27.2213 102.125 31.5403 104.473C35.2029 106.35 50.6842 111.244 61.4141 110.999C71.1566 111.121 120.133 111.223 120.133 111.223L134.319 111.03C134.319 111.03 146.484 110.567 155.302 102.172C157.066 101.24 164.743 96.7812 172.005 102.69C174.6 105.283 182.535 112.93 189.604 114.292C193.298 115.003 202.124 114.956 207.003 115C210.936 115.036 217.782 114.805 221.08 112.608C224.448 110.658 238.82 103.229 237.869 83.1751C237.989 62.7646 237.913 33.004 237.913 33.004C237.913 33.004 239.323 24.3592 230.713 14.1657C228.103 11.0733 225.712 8.96221 221.94 7.48628C217.613 5.7917 215.159 5.56524 206.802 5.56524C202.89 5.56524 198.92 5.49756 194.999 5.53921C186.726 5.63031 183.957 7.95744 175.452 15.0976C172.956 16.8651 171.724 19.1349 167.418 18.695C166.868 18.6586 165.873 18.177 165.42 16.9145C165.279 16.5215 165.225 16.1024 165.225 15.6859C165.23 13.1844 164.831 8.77219 162.039 4.89625C159.345 1.71533 150.384 -3.82656 141.183 3.98779C137.964 6.97609 136.927 12.0338 137.041 14.4468C137.041 16.9744 137.784 20.6499 135.7 21.1184C133.668 21.587 131.477 22.0035 131.477 22.0035C131.477 22.0035 129.55 22.6282 128.974 20.702C128.244 18.6716 124.321 9.24855 112.242 10.3627C111.656 9.07414 108.158 0.150899 99.2043 0.00252511C90.251 -0.145849 86.5103 5.69799 84.6686 10.3288C83.5615 10.3288 76.2389 8.76698 69.5911 14.7644C68.8174 13.9262 64.5583 9.60516 55.9723 10.2507C55.4565 9.08976 53.1589 0.213372 42.4968 -7.79404e-05C37.1645 0.14309 31.9389 0.760011 27.8882 10.2481H27.8856Z" fill="#FDFCFF"/>
<path d="M211.995 102.919H198.402C188.834 102.919 181.05 95.1414 181.05 85.5804V32.257C181.05 22.696 188.834 14.9181 198.402 14.9181H211.995C221.563 14.9181 229.346 22.696 229.346 32.257V85.5804C229.346 95.1414 221.563 102.919 211.995 102.919ZM198.402 22.3862C192.955 22.3862 188.524 26.814 188.524 32.257V85.5804C188.524 91.0233 192.955 95.4511 198.402 95.4511H211.995C217.442 95.4511 221.873 91.0233 221.873 85.5804V32.257C221.873 26.814 217.442 22.3862 211.995 22.3862H198.402Z" fill="#A9886C"/>
<path d="M38.8454 98.1375C35.5605 96.9921 32.4137 95.6515 29.3842 94.0116C27.3731 92.9236 25.6539 91.3852 23.9424 89.8702C23.497 89.4745 23.0854 89.0398 22.3091 88.8446C21.0665 92.3275 19.2847 95.5682 17.4847 98.796C16.784 100.053 16.065 101.308 15.2418 102.49C14.1165 104.106 11.3057 104.64 9.73752 103.627C7.80985 102.386 7.2602 100.16 8.49756 98.1557C12.3269 91.95 15.1793 85.3253 17.3987 78.3855C18.8393 73.8875 19.8109 69.3113 20.6133 64.6701C20.9415 62.7647 21.1004 60.6848 23.2755 59.6618C25.8623 58.4436 28.8475 60.2397 28.9205 63.1499C28.7199 65.3235 28.4542 67.4918 27.9514 69.6211C27.3497 72.1617 26.7167 74.6918 26.2217 77.248C25.7529 79.7079 26.2139 80.7647 27.5815 82.1834C30.5929 85.3044 34.232 87.4181 38.1811 89.1309C40.2625 90.0342 42.4611 90.5366 44.5841 91.2836C45.1468 91.4815 45.7225 91.6324 46.3086 91.7366C51.9744 92.7387 57.6975 93.3921 63.4493 93.6784C76.0547 93.7201 87.8995 93.7201 101.263 93.7201C110.977 93.7201 120.688 93.9335 130.402 93.8971C134.122 93.8841 137.54 92.986 140.689 90.9426C144.276 88.6129 146.141 85.2055 147.274 81.2307C148.066 78.4506 147.983 75.6315 147.936 72.802C147.78 68.2258 147.85 63.6419 147.811 59.0631C147.749 52.2041 147.465 45.3373 147.66 38.486C147.868 31.1168 147.746 23.7528 147.837 16.3888C147.85 15.3059 147.579 14.2387 147.926 13.1324C148.54 11.1827 149.879 10.1675 152.036 10.2196C153.865 10.2638 155.355 11.4508 155.725 13.2729C156.272 15.9853 155.941 18.7341 155.879 21.4595C155.748 27.0847 155.78 32.7021 155.879 38.3273C155.985 44.4965 155.793 50.6709 155.759 56.8427C155.72 64.0193 155.759 71.1985 155.681 78.3751C155.608 85.0597 152.787 91.4658 147.749 95.865C144.357 98.8273 140.421 100.66 135.807 101.409C132.265 101.985 128.779 102.008 125.26 102.016C106.027 102.058 86.795 102 67.5599 102.081C67.065 102.081 66.57 102.071 66.0751 102.042C61.5294 101.779 56.9942 101.428 52.4537 101.016C47.8169 100.236 43.2582 99.6811 38.8454 98.1401V98.1375Z" fill="#A9886C"/>
<path d="M140.971 38.8817C140.257 45.2592 137.675 68.8063 132.385 71.6749C128.787 73.2341 125.38 69.6315 126.899 66.3725C128.04 63.8111 128.73 61.1195 129.29 58.3759C131.072 51.2254 132.408 43.9889 132.603 36.5858C132.96 30.1251 142.383 30.9684 140.971 38.8817Z" fill="#A9886C"/>
<path d="M168.635 67.3408C166.906 61.0779 160.464 37.968 164.355 33.2852C167.15 30.4661 171.709 32.5693 171.511 36.2058C171.404 39.0431 171.767 41.8336 172.274 44.6214C173.293 52.0141 174.762 59.3208 177.367 66.3543C179.467 72.5625 170.292 75.3139 168.635 67.3434V67.3408Z" fill="#A9886C"/>
<path d="M74.2441 75.1005C75.3252 72.7734 77.4977 67.3538 77.9666 63.1681C78.0812 62.1347 78.4798 61.1143 79.2508 60.3699C80.371 59.2922 81.736 58.5373 83.2937 59.1204C84.8932 59.7191 86.0472 60.9347 86.2712 62.7126C86.4119 63.8319 86.0524 64.8992 85.8909 66.0731C85.5679 68.4029 85.0156 70.4957 84.2654 72.6302C82.7597 76.9226 81.0925 81.1448 78.3339 84.8255C77.2658 86.252 75.768 86.8949 74.0096 86.5227C72.2539 86.1531 71.1286 84.9374 70.7691 83.222C70.4825 81.8476 71.1911 80.8142 71.97 79.5283C72.8244 78.1226 73.5095 76.6806 74.2441 75.1005Z" fill="#A9886C"/>
<path d="M58.2863 21.4491H22.9786C21.0795 21.4491 19.54 22.9875 19.54 24.8851V25.3433C19.54 27.2409 21.0795 28.7793 22.9786 28.7793H58.2863C60.1853 28.7793 61.7248 27.2409 61.7248 25.3433V24.8851C61.7248 22.9875 60.1853 21.4491 58.2863 21.4491Z" fill="#A9886C"/>
<path d="M64.0953 42.0678H19.0059C17.1069 42.0678 15.5674 43.6062 15.5674 45.5039V45.962C15.5674 47.8597 17.1069 49.398 19.0059 49.398H64.0953C65.9943 49.398 67.5338 47.8597 67.5338 45.962V45.5039C67.5338 43.6062 65.9943 42.0678 64.0953 42.0678Z" fill="#A9886C"/>
<path d="M63.1786 65.1308H40.4034C38.5043 65.1308 36.9648 66.6692 36.9648 68.5668V68.7204C36.9648 70.6181 38.5043 72.1565 40.4034 72.1565H63.1786C65.0777 72.1565 66.6172 70.6181 66.6172 68.7204V68.5668C66.6172 66.6692 65.0777 65.1308 63.1786 65.1308Z" fill="#A9886C"/>
<path d="M36.9648 14.0434L36.9648 80.481C36.9648 82.3786 38.5043 83.917 40.4034 83.917H40.8619C42.7609 83.917 44.3004 82.3786 44.3004 80.481L44.3004 14.0434C44.3004 12.1457 42.7609 10.6074 40.8619 10.6074H40.4034C38.5043 10.6074 36.9648 12.1457 36.9648 14.0434Z" fill="#A9886C"/>
<path d="M114.228 21.4491H78.92C77.0209 21.4491 75.4814 22.9875 75.4814 24.8851V25.3433C75.4814 27.2409 77.0209 28.7793 78.92 28.7793H114.228C116.127 28.7793 117.666 27.2409 117.666 25.3433V24.8851C117.666 22.9875 116.127 21.4491 114.228 21.4491Z" fill="#A9886C"/>
<path d="M119.117 42.6796H74.0279C72.1288 42.6796 70.5894 44.2179 70.5894 46.1156V46.5737C70.5894 48.4714 72.1288 50.0097 74.0279 50.0097H119.117C121.016 50.0097 122.556 48.4714 122.556 46.5737V46.1156C122.556 44.2179 121.016 42.6796 119.117 42.6796Z" fill="#A9886C"/>
<path d="M119.12 65.1308H96.3448C94.4457 65.1308 92.9062 66.6692 92.9062 68.5668V68.7204C92.9062 70.6181 94.4457 72.1565 96.3448 72.1565H119.12C121.019 72.1565 122.559 70.6181 122.559 68.7204V68.5668C122.559 66.6692 121.019 65.1308 119.12 65.1308Z" fill="#A9886C"/>
<path d="M92.9062 14.0434V80.481C92.9062 82.3786 94.4457 83.917 96.3448 83.917H96.8033C98.7023 83.917 100.242 82.3786 100.242 80.481V14.0434C100.242 12.1457 98.7023 10.6074 96.8033 10.6074H96.3448C94.4457 10.6074 92.9062 12.1457 92.9062 14.0434Z" fill="#A9886C"/>
<path d="M212.998 55.2523H184.82C183.105 55.2523 181.715 56.6414 181.715 58.3551V59.4796C181.715 61.1933 183.105 62.5824 184.82 62.5824H212.998C214.713 62.5824 216.103 61.1933 216.103 59.4796V58.3551C216.103 56.6414 214.713 55.2523 212.998 55.2523Z" fill="#A9886C"/>
</g>
<defs>
<clipPath id="clip0_5049_8193">
<rect width="238" height="115" fill="white"/>
</clipPath>
</defs>
</svg>
