<svg width="416" height="126" viewBox="0 0 416 126" fill="none" xmlns="http://www.w3.org/2000/svg">
<path d="M303.497 63.2912C303.415 63.2912 303.344 63.2896 303.284 63.287C301.986 61.6961 300.824 56.8181 300.79 52.6491V52.3957C300.79 52.3209 300.79 52.2482 300.793 52.1845C300.8 51.9796 300.799 51.7773 300.79 51.576V31.2322C300.79 27.1585 297.488 23.8572 293.415 23.8572H277.758C276.427 23.8572 275.182 24.2144 274.104 24.8307V22.7615C274.104 16.3126 268.682 11.0663 262.016 11.0663H247.877C243.804 11.0663 240.502 14.3682 240.502 18.4413V24.8254C239.427 24.2122 238.185 23.8572 236.858 23.8572H221.201C217.128 23.8572 213.826 27.1585 213.826 31.2322V51.5866C213.818 51.7746 213.817 51.9643 213.823 52.155C213.825 52.2282 213.825 52.3099 213.826 52.3462V52.6512C213.792 56.8181 212.631 61.6924 211.332 63.287C211.272 63.2896 211.201 63.2912 211.119 63.2912C207.045 63.2912 203.744 66.5931 203.744 70.6662V90.31C203.744 94.383 207.045 97.6849 211.119 97.6849C211.984 97.6849 212.772 97.6934 213.498 97.7007C214.025 97.706 214.533 97.7102 215.026 97.7102C218.589 97.7097 221.348 97.5037 224.467 96.2637V112.513C224.467 116.587 227.768 119.888 231.842 119.888H237.808C247.059 119.888 255.27 116.731 261.553 110.758C272.903 99.9664 274.081 83.3301 274.118 77.3922C276.195 82.4967 279.418 87.3226 284.436 90.7472C290.466 94.864 294.052 95.3471 299.59 95.3471C300.083 95.3471 300.591 95.3429 301.117 95.3376C301.844 95.3297 302.631 95.3218 303.497 95.3218C307.57 95.3218 310.872 92.0199 310.872 87.9468V70.6662C310.872 66.5931 307.57 63.2912 303.497 63.2912Z" fill="white"/>
<path d="M237.808 112.513H231.842V93.4975H237.808C240.031 93.4975 242.137 92.9602 243.47 91.7012C247.869 87.5454 247.984 79.563 247.882 76.486L247.877 76.328L247.878 76.1979V18.4413H262.017C264.619 18.4413 266.729 20.3756 266.729 22.7614V76.0604C266.813 78.7122 266.902 95.4956 256.471 105.413C251.586 110.058 245.132 112.513 237.808 112.513Z" fill="#83CCD2"/>
<path d="M236.858 31.2319H221.201V51.9193L221.194 51.9198C221.198 52.0489 221.2 52.1937 221.201 52.3454V52.6805C221.175 56.3606 220.278 65.0109 216.193 68.8696C214.86 70.1286 213.342 70.6659 211.119 70.6659V90.3102C218.443 90.3102 220.377 90.8734 226.023 87.0194C237.522 79.1709 236.84 57.4089 236.858 52.6821L236.858 53.9074V31.2319Z" fill="#4DB1C7"/>
<path d="M277.758 31.2319H293.415V51.9193L293.423 51.9198C293.418 52.0489 293.416 52.1937 293.415 52.3454V52.6805C293.442 56.3606 294.339 65.0109 298.424 68.8696C299.757 70.1286 301.274 70.6659 303.498 70.6659V87.9466C296.173 87.9466 294.239 88.5097 288.594 84.6563C277.095 76.8072 277.776 57.4089 277.759 52.6821L277.758 53.9074V31.2319Z" fill="#4DB1C7"/>
<path d="M92.4364 89.6914H92.3468C94.2633 87.1649 95.3974 84.0637 95.3974 80.7128C95.3974 76.7599 93.8229 73.1519 91.2422 70.4295H92.4353C96.5084 70.4295 99.8103 67.1276 99.8103 63.0545V50.7873C99.8103 49.1537 99.273 47.6492 98.3738 46.4271C99.2746 45.1628 99.8103 43.622 99.8103 41.9552V30.0531C99.8103 25.98 96.5084 22.6781 92.4353 22.6781H69.0588C67.1739 18.742 63.1514 16.0169 58.5036 16.0169H44.7076C40.8753 16.0169 37.7283 18.94 37.369 22.6781H18.3621C14.2885 22.6781 10.9871 25.98 10.9871 30.0531V42.314C10.9871 43.8927 11.4871 45.3514 12.331 46.5509C11.4871 47.7504 10.9871 49.2091 10.9871 50.7873V63.0545C10.9871 63.9985 11.171 64.8977 11.4944 65.7274C9.75447 67.1245 8.66192 69.2837 8.7304 71.6838C8.82996 75.219 7.936 80.7229 6.72914 82.8753C2.95895 83.203 0 86.3668 0 90.2224V107.503C0 111.576 3.30188 114.878 7.37498 114.878C14.3443 114.878 20.6347 112.65 25.8024 108.401C26.5399 108.908 27.3074 109.415 28.1087 109.918C43.7953 119.793 65.4382 124.799 92.4364 124.799C96.5095 124.799 99.8114 121.498 99.8114 117.424V97.0663C99.8114 92.9932 96.5095 89.6914 92.4364 89.6914Z" fill="white"/>
<path d="M62.8221 99.9044H44.8467V82.4631C44.8467 77.3001 45.3487 69.6343 49.6868 62.6961C53.4185 56.7271 62.3064 55.2463 78.5503 54.3918L78.1926 62.9779C66.32 62.9779 62.8221 70.3566 62.8221 82.4631V99.9044Z" fill="#83CCD2"/>
<path d="M92.4365 117.424C66.8505 117.424 46.5293 112.799 32.0375 103.677C20.5072 96.42 16.8909 88.8865 16.283 87.4499L31.7957 79.7283C31.7957 79.7283 31.7694 79.6551 31.703 79.5203C31.7957 79.7089 36.1369 85.6657 44.1251 90.2862C51.8994 94.7833 66.5914 97.0664 92.4365 97.0664V117.424Z" fill="#83CCD2"/>
<path d="M88.0225 80.7132C88.0225 85.1129 84.1316 88.6792 79.3321 88.6792C74.5326 88.6792 70.6417 85.1129 70.6417 80.7132C70.6417 76.3135 74.5326 72.7471 79.3321 72.7471C84.1316 72.7471 88.0225 76.3135 88.0225 80.7132Z" fill="#4DB1C7"/>
<path d="M7.375 107.503V90.2221C9.30092 90.2221 10.6152 89.6848 11.77 88.4258C15.5807 84.27 16.1892 74.5524 16.1017 71.476L32.4204 70.8723C32.4879 72.823 32.8113 90.2269 23.541 100.402C19.3093 105.047 13.7191 107.503 7.375 107.503Z" fill="#4DB1C7"/>
<path d="M62.8248 50.7872H92.4353V63.0539H62.8248V50.7872Z" fill="#83CCD2"/>
<path d="M92.4355 30.0529V41.955C92.4355 42.1562 92.2722 42.3143 92.071 42.3143H62.825V30.0529H92.4355Z" fill="#4DB1C7"/>
<path d="M62.8247 50.7875V63.0542H44.8656C44.7623 62.7713 44.7075 62.4663 44.7075 62.1507V50.7875H62.8247Z" fill="#4DB1C7"/>
<path d="M44.7075 42.314H62.8247V50.7873H44.7075V42.314Z" fill="#83CCD2"/>
<path d="M44.7075 30.0526H62.8247V42.314H44.7075V30.0526Z" fill="#83CCD2"/>
<path d="M62.8247 27.7127V30.0527H44.7075V23.3915H58.5035C60.8872 23.3915 62.8247 25.3237 62.8247 27.7127Z" fill="#4DB1C7"/>
<path d="M44.8654 63.0542H18.3618V50.7875H44.7073V62.1507C44.7073 62.4663 44.7621 62.7713 44.8654 63.0542Z" fill="#4DB1C7"/>
<path d="M18.3622 30.0526H44.7078V42.314H18.3622V30.0526Z" fill="#83CCD2"/>
<path d="M201.509 14.0367C201.509 9.96359 198.208 6.66171 194.134 6.66171H170.753C168.867 2.72558 164.845 0 160.197 0H146.402C142.569 0 139.422 2.92365 139.062 6.66171H120.062C115.988 6.66171 112.687 9.96359 112.687 14.0367V26.2976C112.687 27.8758 113.187 29.335 114.031 30.5345C113.187 31.734 112.687 33.1927 112.687 34.7709V47.0376C112.687 47.9816 112.871 48.8803 113.194 49.71C111.453 51.1065 110.359 53.2668 110.427 55.6679C110.527 59.2021 109.633 64.7054 108.426 66.8584C104.655 67.1866 101.697 70.3504 101.697 74.206V91.4866C101.697 95.5602 104.999 98.8616 109.072 98.8616C116.041 98.8616 122.332 96.6338 127.499 92.3848C128.237 92.8921 129.005 93.3983 129.806 93.9024C145.493 103.776 167.136 108.782 194.133 108.782C198.207 108.782 201.508 105.481 201.508 101.408V81.0505C201.508 76.9769 198.207 73.6755 194.133 73.6755C194.103 73.6755 194.074 73.675 194.044 73.675C195.96 71.149 197.094 68.0479 197.094 64.697C197.094 60.744 195.52 57.1355 192.939 54.4126H194.134C198.208 54.4126 201.509 51.1112 201.509 47.0376V34.7709C201.509 33.1374 200.972 31.6329 200.073 30.4107C200.974 29.1464 201.509 27.6056 201.509 25.9388V14.0367Z" fill="white"/>
<path d="M164.519 83.8883H146.544V66.447C146.544 61.284 147.046 53.6182 151.383 46.68C155.115 40.711 164.003 39.2302 180.247 38.3757L179.89 46.9618C168.017 46.9618 164.519 54.3404 164.519 66.447V83.8883Z" fill="#83CCD2"/>
<path d="M194.133 101.408C168.548 101.408 148.226 96.7827 133.735 87.661C122.204 80.404 118.588 72.8704 117.98 71.4339L133.493 63.7123C133.493 63.7123 133.466 63.6391 133.4 63.5042C133.493 63.6928 137.834 69.6497 145.822 74.2701C153.596 78.7673 168.288 81.0503 194.133 81.0503V101.408Z" fill="#83CCD2"/>
<path d="M189.719 64.6969C189.719 69.0966 185.829 72.663 181.029 72.663C176.23 72.663 172.339 69.0966 172.339 64.6969C172.339 60.2972 176.23 56.7309 181.029 56.7309C185.829 56.7309 189.719 60.2972 189.719 64.6969Z" fill="#4DB1C7"/>
<path d="M164.518 34.7711H194.135V47.0378H164.518V34.7711Z" fill="#83CCD2"/>
<path d="M194.135 14.0367V25.9389C194.135 26.1401 193.971 26.2982 193.77 26.2982H164.518V14.0367H194.135Z" fill="#4DB1C7"/>
<path d="M146.401 34.7711H164.518V47.0378H146.401V34.7711Z" fill="#4DB1C7"/>
<path d="M146.401 26.2983H164.518V34.7716H146.401V26.2983Z" fill="#83CCD2"/>
<path d="M146.401 14.0363H164.518V26.2977H146.401V14.0363Z" fill="#83CCD2"/>
<path d="M164.518 11.6966V14.0366H146.401V7.37543H160.197C162.587 7.37543 164.518 9.30767 164.518 11.6966Z" fill="#4DB1C7"/>
<path d="M120.061 34.7711H146.401V47.0378H120.061V34.7711Z" fill="#4DB1C7"/>
<path d="M120.061 14.0363H146.401V26.2977H120.061V14.0363Z" fill="#83CCD2"/>
<path d="M109.072 91.4867V74.206C110.998 74.206 112.312 73.6687 113.467 72.4097C117.278 68.2539 117.886 58.5363 117.799 55.4599L134.117 54.8562C134.185 56.8069 134.508 74.2108 125.238 84.3861C121.006 89.0313 115.416 91.4867 109.072 91.4867Z" fill="#4DB1C7"/>
<path d="M415.06 95.87C414.122 92.959 411.759 90.7123 408.74 89.8599C408.738 89.8594 408.736 89.8583 408.734 89.8578C408.362 89.7535 407.985 89.6539 407.608 89.5554C407.028 89.4037 406.189 89.1835 405.805 89.0171C405.65 88.6704 405.241 87.4857 405.241 84.6189V56.2111C406.006 55.6732 406.727 55.0679 407.394 54.3984C410.458 51.3336 412.146 47.2594 412.146 42.925C412.146 35.3114 406.97 28.8093 399.601 27.1226C398.403 26.8407 397.164 26.6974 395.92 26.6974H323.09C318.755 26.6974 314.68 28.3858 311.615 31.4511C308.551 34.516 306.864 38.5912 306.864 42.925C306.864 48.3056 309.575 53.2321 313.797 56.2095V91.3154C313.797 110.063 329.049 125.315 347.796 125.315H371.247C372.37 125.315 373.5 125.259 374.609 125.148C374.684 125.141 374.754 125.135 374.817 125.128C377.021 124.932 391.984 123.282 403.971 114.018C408.541 110.49 411.523 107.001 413.371 104.68C415.389 102.143 416.02 98.8495 415.06 95.87Z" fill="white"/>
<path d="M346.61 65.3073H383.395V77.6503H346.61V65.3073Z" fill="#4DB1C7"/>
<path d="M366.27 97.5404H352.768C344.303 97.5404 337.441 90.6753 337.441 82.2125V51.4183H381.597V82.2125C381.597 90.6753 374.735 97.5404 366.27 97.5404ZM406.736 96.9572C402.593 95.7909 397.866 95.4927 397.866 84.6189V51.5611C399.53 51.1891 401.014 50.351 402.178 49.1847C403.781 47.5817 404.77 45.3703 404.77 42.925C404.77 38.7212 401.839 35.2002 397.913 34.302C397.272 34.1508 396.603 34.0729 395.92 34.0729H323.09C320.649 34.0729 318.434 35.0622 316.831 36.6652C315.229 38.2677 314.239 40.4796 314.239 42.925C314.239 47.1545 317.203 50.6924 321.172 51.5653V91.3148C321.172 106.021 333.091 117.94 347.795 117.94H371.247C372.171 117.94 373.085 117.893 373.99 117.797C374.018 117.797 374.051 117.793 374.085 117.789C375.328 117.685 388.859 116.376 399.463 108.181C403.527 105.044 406.123 101.943 407.598 100.089C408.527 98.9226 408.221 97.376 406.736 96.9572Z" fill="#83CCD2"/>
<mask id="mask0_9291_18476" style="mask-type:luminance" maskUnits="userSpaceOnUse" x="314" y="34" width="95" height="84">
<path d="M323.09 34.0726C320.649 34.0726 318.433 35.0625 316.831 36.665C315.229 38.2674 314.239 40.4799 314.239 42.9247C314.239 47.1543 317.203 50.6927 321.172 51.5656V91.3151C321.172 106.021 333.091 117.94 347.795 117.94H371.247C372.171 117.94 373.085 117.893 373.99 117.798C374.018 117.798 374.051 117.793 374.084 117.789C375.329 117.685 388.86 116.376 399.463 108.181C403.526 105.045 406.123 101.942 407.598 100.089C408.527 98.9229 408.22 97.3763 406.736 96.957C402.593 95.7907 397.866 95.4925 397.866 84.6186V51.5608C399.529 51.1894 401.014 50.3513 402.178 49.185C403.781 47.582 404.771 45.3701 404.771 42.9247C404.771 38.7215 401.839 35.2 397.913 34.3018C397.272 34.1506 396.603 34.0726 395.92 34.0726H323.09ZM337.441 82.2123V51.4186H381.597V82.2123C381.597 90.6756 374.735 97.5401 366.27 97.5401H352.768C344.303 97.5401 337.441 90.6756 337.441 82.2123Z" fill="white"/>
</mask>
<g mask="url(#mask0_9291_18476)">
<path d="M436.06 93.9222C436.06 112.876 419.298 128.241 398.621 128.241C377.944 128.241 361.182 112.876 361.182 93.9222C361.182 74.9685 377.944 59.6033 398.621 59.6033C419.298 59.6033 436.06 74.9685 436.06 93.9222Z" fill="#4DB1C7"/>
</g>
</svg>
